<?xml version="1.0" encoding="iso-8859-1"?>
<!-- Generator: Adobe Illustrator 18.1.1, SVG Export Plug-In . SVG Version: 6.00 Build 0)  -->
<svg version="1.1" id="Capa_1" xmlns="http://www.w3.org/2000/svg" xmlns:xlink="http://www.w3.org/1999/xlink" x="0px" y="0px"
	 viewBox="0 0 289.998 289.998" style="enable-background:new 0 0 289.998 289.998;" xml:space="preserve">
<path color-rendering="auto" image-rendering="auto" shape-rendering="auto" color-interpolation="sRGB" d="M144.998,0.004
	c-4.318,0-8.636,1.117-12.5,3.348c-7.728,4.462-12.5,12.727-12.5,21.65l0.164,182.652c-15.904,10.584-23.605,30.141-18.674,48.826
	c5.195,19.686,23.025,33.461,43.385,33.518c20.359,0.056,38.266-13.619,43.57-33.275c5.038-18.669-2.549-38.364-18.418-49.051
	l-0.025-182.676c-0.001-8.923-4.773-17.187-12.5-21.648C153.637,1.117,149.319,0,145.001,0L144.998,0.004z M144.998,10.002
	c2.588,0,5.176,0.672,7.5,2.014c4.648,2.684,7.5,7.623,7.5,12.99v5h-5c-6.762-0.096-6.762,10.096,0,10H160v10h-5.004
	c-6.762-0.096-6.762,10.096,0,10h5.006v10h-5.006c-6.762-0.096-6.762,10.096,0,10h5.008l0.019,130.264
	c0,1.785,0.952,3.435,2.498,4.328c13.729,7.941,20.402,24.203,16.266,39.527c-4.137,15.33-18.01,25.925-33.889,25.881
	c-15.878-0.044-29.692-10.718-33.744-26.07c-4.052-15.353,2.697-31.451,16.486-39.324c1.56-0.891,2.523-2.549,2.521-4.346
	l-0.166-185.264c0-5.365,2.853-10.303,7.5-12.986c2.324-1.342,4.912-2.014,7.5-2.014H144.998z M144.922,91.498
	c-2.759,0.042-4.963,2.311-4.924,5.07v129.098c-8.821,2.278-14.989,10.229-15,19.34c0,11.046,8.954,20,20,20l0,0
	c11.046,0,20-8.954,20-20l0,0c-0.007-9.114-6.175-17.071-15-19.35V96.568c0.039-2.761-2.168-5.031-4.93-5.07
	C145.02,91.497,144.971,91.497,144.922,91.498z"/>
<g>
</g>
<g>
</g>
<g>
</g>
<g>
</g>
<g>
</g>
<g>
</g>
<g>
</g>
<g>
</g>
<g>
</g>
<g>
</g>
<g>
</g>
<g>
</g>
<g>
</g>
<g>
</g>
<g>
</g>
</svg>
