<?xml version="1.0" encoding="iso-8859-1"?>
<!-- Generator: Adobe Illustrator 19.0.0, SVG Export Plug-In . SVG Version: 6.00 Build 0)  -->
<svg version="1.1" id="Layer_1" xmlns="http://www.w3.org/2000/svg" xmlns:xlink="http://www.w3.org/1999/xlink" x="0px" y="0px"
	 viewBox="0 0 512 512" style="enable-background:new 0 0 512 512;" xml:space="preserve">
<g transform="translate(1 1)">
	<g>
		<path d="M505.88,166.147L258.413,55.213c-1.707-0.853-4.267-0.853-6.827,0L4.12,166.147C0.707,167-1,170.413-1,173.827v273.067
			c0,5.12,3.413,8.533,8.533,8.533h34.133h426.667h34.133c5.12,0,8.533-3.413,8.533-8.533V173.827
			C511,170.413,509.293,167.853,505.88,166.147z M50.2,438.36v-17.067h409.6v17.067H50.2z M493.933,438.36h-17.067v-25.6
			c0-5.12-3.413-8.533-8.533-8.533h-51.2v-26.074c38.593-4.198,68.267-36.547,68.267-76.326c0-5.12-3.413-8.533-8.533-8.533
			c-24.229,0-45.696,11.015-59.733,28.34v-45.881c38.593-4.198,68.267-36.547,68.267-76.326c0-5.12-3.413-8.533-8.533-8.533
			c-24.229,0-45.696,11.015-59.733,28.34v-35.167c0-5.12-3.413-8.533-8.533-8.533s-8.533,3.413-8.533,8.533v86.367
			c-14.038-17.326-35.505-28.34-59.733-28.34c-5.12,0-8.533,3.413-8.533,8.533c0,39.779,29.674,72.128,68.267,76.326v77.274H263.533
			v-26.074c38.593-4.198,68.267-36.547,68.267-76.326c0-5.12-3.413-8.533-8.533-8.533c-24.229,0-45.696,11.015-59.733,28.34v-45.881
			c38.593-4.198,68.267-36.547,68.267-76.326c0-5.12-3.413-8.533-8.533-8.533c-24.229,0-45.696,11.015-59.733,28.34v-35.167
			c0-5.12-3.413-8.533-8.533-8.533s-8.533,3.413-8.533,8.533v86.367c-14.038-17.326-35.505-28.34-59.733-28.34
			c-5.12,0-8.533,3.413-8.533,8.533c0,39.779,29.674,72.128,68.267,76.326v77.274H109.933v-26.074
			c38.593-4.198,68.267-36.547,68.267-76.326c0-5.12-3.413-8.533-8.533-8.533c-24.229,0-45.696,11.015-59.733,28.34v-45.881
			c38.593-4.198,68.267-36.547,68.267-76.326c0-5.12-3.413-8.533-8.533-8.533c-24.229,0-45.696,11.015-59.733,28.34v-35.167
			c0-5.12-3.413-8.533-8.533-8.533s-8.533,3.413-8.533,8.533v86.367c-14.038-17.326-35.505-28.34-59.733-28.34
			c-5.12,0-8.533,3.413-8.533,8.533c0,39.779,29.674,72.128,68.267,76.326v77.274h-51.2c-5.12,0-8.533,3.413-8.533,8.533v25.6
			H16.067V178.947L255,72.28l238.933,106.667V438.36z M417.987,360.707c3.413-25.6,23.893-45.227,49.493-49.493
			C463.213,336.813,443.587,356.44,417.987,360.707z M417.987,258.307c3.413-25.6,23.893-45.227,49.493-49.493
			C463.213,234.413,443.587,254.04,417.987,258.307z M399.213,309.507c-25.6-3.413-45.227-23.893-49.493-49.493
			C375.32,264.28,394.947,283.907,399.213,309.507z M264.387,360.707c3.413-25.6,23.893-45.227,49.493-49.493
			C309.613,336.813,289.987,356.44,264.387,360.707z M264.387,258.307c3.413-25.6,23.893-45.227,49.493-49.493
			C309.613,234.413,289.987,254.04,264.387,258.307z M245.613,309.507c-25.6-3.413-45.227-23.893-49.493-49.493
			C221.72,264.28,241.347,283.907,245.613,309.507z M110.787,360.707c3.413-25.6,23.893-45.227,49.493-49.493
			C156.013,336.813,136.387,356.44,110.787,360.707z M110.787,258.307c3.413-25.6,23.893-45.227,49.493-49.493
			C156.013,234.413,136.387,254.04,110.787,258.307z M92.013,309.507c-25.6-3.413-45.227-23.893-49.493-49.493
			C68.12,264.28,87.747,283.907,92.013,309.507z"/>
	</g>
</g>
<g>
</g>
<g>
</g>
<g>
</g>
<g>
</g>
<g>
</g>
<g>
</g>
<g>
</g>
<g>
</g>
<g>
</g>
<g>
</g>
<g>
</g>
<g>
</g>
<g>
</g>
<g>
</g>
<g>
</g>
</svg>
